<?xml version="1.0" encoding="UTF-8"?>
<svg id="a" data-name="Playspace" xmlns="http://www.w3.org/2000/svg" width="100" height="100" viewBox="0 0 100 100">
  <path d="M.053,33.394c2.466,1.508,4.777,2.918,7.086,4.333,9.435,5.78,18.87,11.562,28.305,17.343,3.934,2.41,7.871,4.815,11.801,7.23,1.845,1.133,3.679,1.15,5.53,.018,8.967-5.482,17.935-10.963,26.905-16.44,6.579-4.016,13.162-8.025,19.744-12.036,.142-.086,.289-.163,.53-.297,.02,.26,.044,.42,.044,.581,0,14.953,.008,29.905-.008,44.858-.003,3.177-2.015,5.642-5.116,6.354-.534,.123-1.099,.152-1.65,.152-28.777,.007-57.553,.008-86.33,.003-4.091,0-6.835-2.729-6.837-6.802-.007-14.777-.003-29.555-.003-44.332,0-.261,0-.522,0-.964Z"/>
  <path d="M50.079,14.509c14.375,0,28.75-.002,43.126,.002,2.6,0,4.724,1.015,5.927,3.346,.55,1.066,.637,2.385,.834,3.605,.039,.239-.326,.646-.602,.817-4.795,2.958-9.605,5.892-14.414,8.829-6.155,3.759-12.311,7.516-18.467,11.275-5.308,3.241-10.612,6.489-15.938,9.701-.265,.16-.804,.138-1.076-.027-8.776-5.35-17.534-10.731-26.298-16.1-7.32-4.484-14.645-8.96-21.97-13.435-1.255-.767-1.328-.902-1.095-2.388,.52-3.319,3.175-5.612,6.586-5.618,8.911-.016,17.823-.008,26.734-.008,5.551,0,11.103,0,16.654,0v.003Z"/>
</svg>