<?xml version="1.0" encoding="UTF-8"?>
<svg id="a" data-name="Playspace" xmlns="http://www.w3.org/2000/svg" width="100" height="100" viewBox="0 0 100 100">
  <path d="M30.086,84.308c-.545,.3-1.177,.606-1.768,.979-2.269,1.434-4.552,2.85-6.774,4.355-1.114,.755-1.97,.694-2.91-.271-2.7-2.773-5.498-5.453-8.121-8.296-.423-.459-.469-1.745-.136-2.338,1.388-2.475,3.105-4.769,4.446-7.266,.465-.866,.501-2.227,.194-3.189-.74-2.316-1.72-4.568-2.777-6.763-.351-.728-1.142-1.526-1.887-1.733-2.886-.801-5.859-1.289-8.74-2.103-.649-.183-1.485-1.198-1.508-1.855-.141-3.946-.143-7.903,.003-11.849,.023-.624,.94-1.565,1.613-1.753,2.732-.764,5.567-1.167,8.283-1.974,.93-.276,1.89-1.199,2.372-2.081,.9-1.649,1.213-3.644,2.223-5.2,1.361-2.096,.977-3.683-.399-5.522-1.462-1.953-2.743-4.057-3.924-6.195-.297-.538-.193-1.72,.212-2.154,2.637-2.83,5.442-5.503,8.119-8.298,1.049-1.096,1.942-.987,3.098-.212,2.294,1.539,4.593,3.096,7.026,4.389,.868,.461,2.212,.457,3.196,.173,1.729-.499,3.29-1.721,5.027-2.014,2.574-.434,3.254-2.032,3.644-4.191,.42-2.327,.854-4.668,1.552-6.919,.227-.732,1.282-1.68,1.995-1.711,3.865-.169,7.744-.171,11.609-.001,.695,.031,1.726,1.016,1.945,1.756,.782,2.64,1.38,5.347,1.849,8.063,.252,1.454,.911,2.188,2.281,2.638,1.942,.638,3.907,1.315,5.689,2.291,1.642,.9,2.88,.703,4.328-.323,2.059-1.458,4.276-2.692,6.364-4.113,1.24-.844,2.145-.886,3.265,.299,2.495,2.64,5.105,5.176,7.741,7.677,1.067,1.012,1.143,1.85,.312,3.061-1.562,2.276-2.924,4.688-4.479,6.969-.801,1.175-.994,2.137-.2,3.439,.854,1.401,1.734,2.934,2.005,4.512,.528,3.075,2.474,4.008,5.179,4.407,2.102,.31,4.212,.748,6.22,1.422,.715,.24,1.593,1.323,1.624,2.054,.162,3.786,.161,7.587-.004,11.373-.031,.703-.952,1.758-1.666,1.97-2.792,.832-5.692,1.3-8.491,2.111-.811,.235-1.688,1.034-2.071,1.805-1.118,2.252-2.093,4.589-2.922,6.963-.258,.74-.124,1.85,.268,2.541,1.402,2.468,2.944,4.861,4.532,7.216,.82,1.217,.685,2.096-.353,3.094-2.619,2.52-5.217,5.066-7.717,7.702-1.118,1.179-2.052,1.111-3.29,.279-2.227-1.496-4.453-3.028-6.829-4.254-.93-.48-2.35-.47-3.397-.166-2.031,.59-4.035,1.4-5.893,2.409-.964,.524-1.975,1.544-2.297,2.553-.787,2.467-1.237,5.049-1.723,7.604-.276,1.453-.856,2.187-2.496,2.138-3.632-.109-7.27-.083-10.904-.012-1.518,.03-2.274-.439-2.555-2.038-.476-2.715-1.132-5.406-1.863-8.066-.198-.719-.808-1.571-1.458-1.877-2.488-1.174-5.069-2.154-7.618-3.198-.287-.118-.598-.179-1.049-.31Zm-3.442-34.443c-.101,12.839,10.188,23.415,22.876,23.514,13.146,.103,23.664-10.148,23.749-23.146,.085-12.849-10.149-23.2-23.023-23.289-13.195-.091-23.5,9.916-23.602,22.921Z"/>
  <path d="M26.644,49.865c.102-13.005,10.406-23.012,23.602-22.921,12.875,.089,23.108,10.44,23.023,23.289-.086,12.998-10.603,23.249-23.749,23.146-12.687-.099-22.976-10.675-22.876-23.514Z" fill="#fff"/>
</svg>