<?xml version="1.0" encoding="UTF-8"?>
<svg id="a" data-name="Playspace" xmlns="http://www.w3.org/2000/svg" width="100" height="100" viewBox="0 0 100 100">
  <path d="M59.419,73.261c1.56-.271,3.07-.497,4.564-.802,2.463-.503,4.845-1.26,7.095-2.405,4.192-2.134,7.253-5.338,8.946-9.73,2.093-5.429,2.632-11.037,1.424-16.75-.628-2.97-2.064-5.578-4.05-7.868-.361-.417-.398-.748-.236-1.264,1.281-4.087,.889-8.106-.554-12.077-.174-.478-.501-.559-.927-.576-1.789-.07-3.474,.392-5.129,.998-2.579,.945-4.955,2.285-7.231,3.806-.451,.302-.84,.393-1.383,.253-7.85-2.027-15.709-2.024-23.56-.005-.539,.139-.928,.061-1.384-.237-2.885-1.881-5.872-3.573-9.252-4.396-1.035-.252-2.124-.286-3.19-.4-.456-.049-.711,.17-.876,.626-1.459,4.026-1.815,8.086-.489,12.225,.075,.235,.037,.624-.114,.797-4.192,4.81-5.28,10.477-4.682,16.636,.283,2.908,.825,5.748,1.96,8.453,2.397,5.71,6.762,9.226,12.567,10.995,2.312,.705,4.734,1.052,7.107,1.559,.243,.052,.491,.075,.757,.114-.022,.103-.013,.193-.053,.234-1.605,1.637-2.4,3.66-2.835,5.864-.05,.255-.218,.608-.423,.693-3.463,1.427-6.927,1.8-10.328-.181-1.572-.916-2.744-2.247-3.693-3.779-.906-1.462-1.99-2.765-3.371-3.8-1.698-1.273-3.577-1.898-5.711-1.48-1.195,.234-1.421,.887-.596,1.772,.405,.434,.876,.841,1.39,1.132,1.21,.685,2.201,1.61,2.918,2.765,1.013,1.632,2.022,3.287,2.815,5.031,1.566,3.447,4.33,5.123,7.901,5.736,2.728,.468,5.443,.239,8.151-.201,.171-.028,.344-.041,.618-.074,0,.277-.002,.52,0,.763,.021,2.68,.04,5.361,.063,8.041,.02,2.294-1.577,3.497-3.741,2.69C15.752,91.659,4.248,78.9,.879,59.831-2.432,41.087,3.671,25.212,18.131,12.787,25.968,6.053,35.225,2.285,45.542,1.508,63.097,.184,77.635,6.337,88.908,19.84c6.449,7.724,10.031,16.754,10.898,26.794,1.932,22.355-10.736,42.838-31.525,51.064-.698,.276-1.404,.537-2.118,.767-2.087,.672-3.636-.445-3.627-2.623,.018-4.283,.059-8.567,.078-12.85,.013-2.842-.341-5.605-1.925-8.064-.362-.562-.811-1.069-1.271-1.666Z"/>
</svg>