<?xml version="1.0" encoding="UTF-8"?>
<svg id="a" data-name="Playspace" xmlns="http://www.w3.org/2000/svg" width="100" height="100" viewBox="0 0 100 100">
  <path d="M29.926,99.162c-14.952,0-29.447-4.451-29.447-24.083v-31.501C.479,23.946,14.974,19.495,29.926,19.495c6.163,0,14.723,.799,20.315,1.255v13.811s-11.984-1.37-19.631-1.37c-13.354,0-15.066,5.022-15.066,18.033v16.093c0,13.012,.913,18.262,15.066,18.262,3.31,0,7.419-.229,11.071-.457v-18.718h-14.382v-13.582h29.447v44.627c-12.326,1.027-19.974,1.712-26.821,1.712Z" fill="#f7c90b"/>
  <g>
    <path d="M68.231,96.608v-16.104h2.705v13.274h11.068v-12.358h2.663v12.358h11.775v-13.274h2.705v16.104h-30.917Z"/>
    <path d="M68.231,70.892v-2.83h28.212v-13.981h2.705v16.811h-30.917Z"/>
    <path d="M67.649,35.105c0-8.738,6.99-15.104,16.062-15.104s16.021,6.366,16.021,15.104-6.908,15.188-16.021,15.188-16.062-6.408-16.062-15.188Zm16.062-12.15c-8.405,0-13.315,5.867-13.315,12.15,0,6.367,4.91,12.234,13.315,12.234,8.447,0,13.273-5.951,13.273-12.234s-4.91-12.15-13.273-12.15Z"/>
  </g>
</svg>