<?xml version="1.0" encoding="UTF-8"?>
<svg id="a" data-name="Playspace" xmlns="http://www.w3.org/2000/svg" width="100" height="100" viewBox="0 0 100 100">
  <path d="M56.438,50.084c0,9.473-6.963,17.234-16.436,17.234H18.544v30.588H3.479V20.751H40.002c9.473,0,16.436,7.647,16.436,17.12v12.213Zm-15.066-7.761c0-5.365-1.369-8.104-8.56-8.104h-14.268v19.518h14.268c7.19,0,8.56-3.538,8.56-8.903v-2.511Z" fill="#ffbbea"/>
  <g>
    <path d="M65.231,96.608v-16.104h2.705v13.274h11.068v-12.358h2.663v12.358h11.775v-13.274h2.705v16.104h-30.917Z"/>
    <path d="M65.231,70.892v-2.83h28.212v-13.981h2.705v16.811h-30.917Z"/>
    <path d="M64.649,35.105c0-8.738,6.99-15.104,16.062-15.104s16.021,6.366,16.021,15.104-6.908,15.188-16.021,15.188-16.062-6.408-16.062-15.188Zm16.062-12.15c-8.405,0-13.315,5.867-13.315,12.15,0,6.367,4.91,12.234,13.315,12.234,8.447,0,13.273-5.951,13.273-12.234s-4.91-12.15-13.273-12.15Z"/>
  </g>
</svg>