<?xml version="1.0" encoding="UTF-8"?>
<svg id="a" data-name="Playspace" xmlns="http://www.w3.org/2000/svg" width="342.865" height="218.052" viewBox="0 0 342.865 218.052">
  <path d="M33.153,64.721L50.849,24.512h14.336V100.225h-14.225V53.857h-.448l-12.88,28h-10.08l-12.88-28h-.447v46.368H0V24.512H14.336l17.696,40.209h1.12Z"/>
  <path d="M85.561,77.713V24.512h14.784v50.064c0,11.871,7.28,13.664,13.552,13.664s13.553-1.793,13.553-13.664V24.512h14.784v53.201c0,16.576-13.552,23.744-28.336,23.744s-28.336-7.168-28.336-23.744Z"/>
  <path d="M239.807,37.84v62.385h-14.784V37.84h-19.488v-13.328h53.761v13.328h-19.488Z"/>
  <path d="M273.738,100.225V24.512h14.784V100.225h-14.784Z"/>
  <path d="M113.003,216.71l-30.577-52.08v52.08h-14.784v-75.712h14.672l30.689,52.192v-52.192h14.784v75.712h-14.784Z"/>
  <path d="M192.517,197.446h-28.897l-6.272,19.264h-15.681l26.097-75.712h20.608l26.096,75.712h-15.68l-6.272-19.264Zm-24.416-13.999h19.824l-9.296-28.897h-1.12l-9.408,28.897Z"/>
  <path d="M266.206,216.71l-23.521-31.135h-1.119v31.135h-14.784v-75.712h14.784v31.248h1.119l23.632-31.248h16.353l-28,37.521,28.56,38.191h-17.024Z"/>
  <path d="M295.992,216.71v-75.712h46.704v13.215h-31.92v18.032h26.657v13.329h-26.657v17.808h32.816v13.328h-47.6Z"/>
  <rect x="315.886" y="42.055" width="14.784" height="40.627" transform="translate(260.91 385.647) rotate(-90)"/>
  <polygon points="177.395 86.897 177.395 42.191 177.395 24.512 177.395 14.784 177.395 7.392 177.395 0 0 0 0 14.784 162.611 14.784 162.611 24.512 162.611 42.191 162.611 100.224 208.42 100.224 208.42 86.897 177.395 86.897" fill="#dd2626"/>
  <path d="M208.42,129.396v-14.784H0v51.215c0,5.147,4.172,9.319,9.319,9.319H30.173c2.573,0,4.659,2.086,4.659,4.659v18.694c0,2.573-2.086,4.659-4.659,4.659H0v14.784H40.298c5.147,0,9.319-4.172,9.319-9.319v-38.944c0-5.147-4.172-9.319-9.319-9.319H19.444c-2.573,0-4.659-2.086-4.659-4.659v-26.306H208.42Z" fill="#2a4ae8"/>
</svg>