<?xml version="1.0" encoding="UTF-8"?>
<svg id="a" data-name="Playspace" xmlns="http://www.w3.org/2000/svg" width="100" height="100" viewBox="0 0 100 100">
  <path d="M.063,82.179c10.747,.667,20.476-1.934,29.435-8.704-9.439-1.157-15.773-5.681-19.173-14.553h8.209c.066-.163,.131-.326,.197-.489-9.686-3.31-15.087-9.836-15.774-20.215,2.98,.819,5.635,1.55,8.291,2.28,.111-.171,.222-.342,.333-.513C3.016,32.374,.919,23.444,5.833,12.562c11.441,13.188,25.428,20.611,42.84,21.747-.04-.861-.034-1.449-.098-2.029-1.165-10.544,4.552-19.567,14.67-22.635,7.429-2.253,14.125-.489,19.933,4.619,.808,.71,1.465,1.144,2.633,.669,3.472-1.413,7-2.687,10.506-4.017,.245-.093,.487-.192,1.016-.401-1.469,4.614-4.272,7.891-7.809,10.758,3.556,.142,6.748-1.361,10.476-2.428-2.409,3.631-5.031,6.45-8.081,8.818-1.413,1.097-1.951,2.208-1.991,4.019-.428,19.261-7.819,35.295-22.813,47.509-8.215,6.692-17.817,10.331-28.36,11.637-10.237,1.268-20.13,.101-29.689-3.696-3.099-1.231-6.048-2.84-9.065-4.275,.021-.225,.042-.451,.063-.676Z"/>
</svg>